<svg width="42" height="40" viewBox="0 0 42 40" fill="none" xmlns="http://www.w3.org/2000/svg">
<g filter="url(#filter0_d_0_196)">
<path d="M23.25 13.875H6C5.385 13.875 4.875 13.365 4.875 12.75C4.875 12.135 5.385 11.625 6 11.625H23.25C23.865 11.625 24.375 12.135 24.375 12.75C24.375 13.365 23.865 13.875 23.25 13.875Z" fill="black"/>
<path d="M15 25.875H12C11.385 25.875 10.875 25.365 10.875 24.75C10.875 24.135 11.385 23.625 12 23.625H15C15.615 23.625 16.125 24.135 16.125 24.75C16.125 25.365 15.615 25.875 15 25.875Z" fill="black"/>
<path d="M24.75 25.875H18.75C18.135 25.875 17.625 25.365 17.625 24.75C17.625 24.135 18.135 23.625 18.75 23.625H24.75C25.365 23.625 25.875 24.135 25.875 24.75C25.875 25.365 25.365 25.875 24.75 25.875Z" fill="black"/>
<path d="M29.34 31.875H12.66C6.69 31.875 4.875 30.075 4.875 24.165V11.835C4.875 5.925 6.69 4.125 12.66 4.125H23.25C23.865 4.125 24.375 4.635 24.375 5.25C24.375 5.865 23.865 6.375 23.25 6.375H12.66C7.95 6.375 7.125 7.185 7.125 11.835V24.15C7.125 28.8 7.95 29.61 12.66 29.61H29.325C34.035 29.61 34.86 28.8 34.86 24.15V16.53C34.86 15.915 35.37 15.405 35.985 15.405C36.6 15.405 37.11 15.915 37.11 16.53V24.15C37.125 30.075 35.31 31.875 29.34 31.875Z" fill="black"/>
<path d="M29.9992 12.3756C29.7142 12.3756 29.4292 12.2706 29.2042 12.0456L26.9542 9.79564C26.5192 9.36064 26.5192 8.64064 26.9542 8.20564C27.3892 7.77064 28.1092 7.77064 28.5442 8.20564L29.9992 9.66064L35.2042 4.45564C35.6392 4.02064 36.3592 4.02064 36.7942 4.45564C37.2292 4.89064 37.2292 5.61064 36.7942 6.04564L30.7942 12.0456C30.5692 12.2706 30.2842 12.3756 29.9992 12.3756Z" fill="black"/>
</g>
<defs>
<filter id="filter0_d_0_196" x="-1" y="0" width="44" height="44" filterUnits="userSpaceOnUse" color-interpolation-filters="sRGB">
<feFlood flood-opacity="0" result="BackgroundImageFix"/>
<feColorMatrix in="SourceAlpha" type="matrix" values="0 0 0 0 0 0 0 0 0 0 0 0 0 0 0 0 0 0 127 0" result="hardAlpha"/>
<feOffset dy="4"/>
<feGaussianBlur stdDeviation="2"/>
<feComposite in2="hardAlpha" operator="out"/>
<feColorMatrix type="matrix" values="0 0 0 0 0 0 0 0 0 0 0 0 0 0 0 0 0 0 0.25 0"/>
<feBlend mode="normal" in2="BackgroundImageFix" result="effect1_dropShadow_0_196"/>
<feBlend mode="normal" in="SourceGraphic" in2="effect1_dropShadow_0_196" result="shape"/>
</filter>
</defs>
</svg>
